# Blender 4.3.0
# www.blender.org
mtllib ceiling.mtl
o Cube.044
v 47.055889 1.000000 -47.055889
v 47.055889 -1.000000 -47.055889
v 47.055889 1.000000 47.055889
v 47.055889 -1.000000 47.055889
v -47.055889 1.000000 -47.055889
v -47.055889 -1.000000 -47.055889
v -47.055889 1.000000 47.055889
v -47.055889 -1.000000 47.055889
v 0.276669 1.000000 -27.615183
v 0.276669 -1.000000 -27.615183
v -27.303450 1.000000 -0.035065
v -27.303450 -1.000000 -0.035065
v -23.608414 1.000000 -13.825124
v -23.608414 -1.000000 -13.825124
v 27.856787 1.000000 -0.035065
v 27.856787 -1.000000 -0.035065
v 24.161751 1.000000 13.754993
v 24.161751 -1.000000 13.754993
v 24.161751 1.000000 -13.825124
v 24.161751 -1.000000 -13.825124
v -13.513390 1.000000 23.850018
v -13.513390 -1.000000 23.850018
v 14.066728 1.000000 -23.920147
v 14.066728 -1.000000 -23.920147
v -13.513390 1.000000 -23.920147
v -13.513390 -1.000000 -23.920147
v 14.066728 1.000000 23.850018
v 14.066728 -1.000000 23.850018
v -23.608414 1.000000 13.754993
v -23.608414 -1.000000 13.754993
v 0.276669 1.000000 27.545053
v 0.276669 -1.000000 27.545053
v 0.871363 -1.000000 47.055889
v 1.057166 1.000000 47.055889
v 0.301640 1.000000 -47.055889
v 0.102575 -1.000000 -47.055889
v 22.620325 1.000000 -47.055889
v 23.131176 -1.000000 -47.055889
v -20.529261 1.000000 -47.055889
v -19.625031 -1.000000 -47.055889
v -20.938774 -1.000000 47.055889
v -20.913343 1.000000 47.055889
v 21.943081 -1.000000 47.055889
v 22.395716 1.000000 47.055889
v -47.055889 1.000000 -2.941262
v 47.055889 -1.000000 -2.667345
v 47.055889 1.000000 -1.364118
v -47.055889 -1.000000 -2.085337
vn -0.0000 -0.0000 1.0000
vn -1.0000 -0.0000 -0.0000
vn -0.0000 1.0000 -0.0000
vn 1.0000 -0.0000 -0.0000
vn -0.0000 -0.0000 -1.0000
vn 0.5000 -0.0000 -0.8660
vn -0.5000 -0.0000 -0.8660
vn -0.8660 -0.0000 0.5000
vn 0.8660 -0.0000 -0.5000
vn -0.8660 -0.0000 -0.5000
vn 0.8660 -0.0000 0.5000
vn 0.5000 -0.0000 0.8660
vn -0.5000 -0.0000 0.8660
vn -0.0000 -1.0000 -0.0000
vt 0.375000 0.750000
vt 0.625000 0.750000
vt 0.625000 0.815508
vt 0.375000 0.816710
vt 0.375000 0.000000
vt 0.625000 0.000000
vt 0.625000 0.132813
vt 0.375000 0.130540
vt 0.785897 0.561458
vt 0.804534 0.500000
vt 0.875000 0.500000
vt 0.812714 0.588275
vt 0.375000 0.500000
vt 0.625000 0.500000
vt 0.625000 0.621376
vt 0.375000 0.617914
vt 0.375000 0.250000
vt 0.625000 0.250000
vt 0.625000 0.320466
vt 0.375000 0.322868
vt 0.416667 0.640905
vt 0.416667 0.760035
vt 0.500000 0.760035
vt 0.500000 0.640905
vt 0.583333 0.760035
vt 0.583333 0.640905
vt 0.750000 0.640905
vt 0.750000 0.760035
vt 0.833333 0.760035
vt 0.833333 0.640905
vt 0.333333 0.640905
vt 0.333333 0.760035
vt 0.666667 0.640905
vt 0.666667 0.760035
vt 0.250000 0.640905
vt 0.250000 0.760035
vt 0.166667 0.640905
vt 0.166667 0.760035
vt 0.083333 0.640905
vt 0.083333 0.760035
vt 0.916667 0.640905
vt 0.916667 0.760035
vt 1.000000 0.760035
vt 1.000000 0.640905
vt 0.000000 0.640905
vt 0.000000 0.760035
vt 0.308290 0.750000
vt 0.287367 0.688356
vt 0.314184 0.661539
vt 0.685816 0.661539
vt 0.712633 0.688356
vt 0.690508 0.750000
vt 0.689911 0.500000
vt 0.712633 0.561458
vt 0.685816 0.588275
vt 0.747192 0.750000
vt 0.749265 0.698171
vt 0.785897 0.688356
vt 0.805555 0.750000
vt 0.252315 0.750000
vt 0.250735 0.698171
vt 0.375000 0.872685
vt 0.625000 0.872192
vt 0.625000 0.930555
vt 0.375000 0.930622
vt 0.749265 0.551643
vt 0.749199 0.500000
vt 0.375000 0.375272
vt 0.625000 0.375801
vt 0.625000 0.435089
vt 0.375000 0.436446
vt 0.250735 0.551643
vt 0.250272 0.500000
vt 0.311446 0.500000
vt 0.287367 0.561458
vt 0.177471 0.624907
vt 0.187286 0.661539
vt 0.125000 0.750000
vt 0.125000 0.619460
vt 0.214103 0.561458
vt 0.197868 0.500000
vt 0.625000 1.000000
vt 0.375000 1.000000
vt 0.812714 0.661539
vt 0.875000 0.750000
vt 0.194378 0.750000
vt 0.214103 0.688356
vt 0.875000 0.617187
vt 0.822529 0.624907
vt 0.676001 0.624907
vt 0.323999 0.624907
vt 0.314184 0.588275
vt 0.187286 0.588275
vt 0.125000 0.500000
s 0
usemtl Material
f 4/1/1 3/2/1 44/3/1 43/4/1
f 8/5/2 7/6/2 45/7/2 48/8/2
f 25/9/3 39/10/3 5/11/3 13/12/3
f 2/13/4 1/14/4 47/15/4 46/16/4
f 6/17/5 5/18/5 39/19/5 40/20/5
s 1
f 22/21/6 21/22/6 31/23/5 32/24/5
f 32/24/5 31/23/5 27/25/7 28/26/7
f 16/27/2 15/28/2 19/29/8 20/30/8
f 30/31/9 29/32/9 21/22/6 22/21/6
f 18/33/10 17/34/10 15/28/2 16/27/2
f 12/35/4 11/36/4 29/32/9 30/31/9
f 14/37/11 13/38/11 11/36/4 12/35/4
f 26/39/12 25/40/12 13/38/11 14/37/11
f 24/41/13 23/42/13 9/43/1 10/44/1
f 20/30/8 19/29/8 23/42/13 24/41/13
f 10/45/1 9/46/1 25/40/12 26/39/12
f 28/26/7 27/25/7 17/34/10 18/33/10
s 0
f 43/47/14 28/48/14 18/49/14 4/1/14
f 3/2/3 17/50/3 27/51/3 44/52/3
f 1/14/3 37/53/3 23/54/3 19/55/3
f 34/56/3 31/57/3 21/58/3 42/59/3
f 33/60/14 32/61/14 28/48/14 43/47/14
f 33/62/1 34/63/1 42/64/1 41/65/1
f 9/66/3 35/67/3 39/10/3 25/9/3
f 36/68/5 35/69/5 37/70/5 38/71/5
f 10/72/14 36/73/14 38/74/14 24/75/14
f 23/54/3 37/53/3 35/67/3 9/66/3
f 12/76/14 30/77/14 8/78/14 48/79/14
f 38/71/5 37/70/5 1/14/5 2/13/5
f 40/20/5 39/19/5 35/69/5 36/68/5
f 26/80/14 40/81/14 36/73/14 10/72/14
f 41/65/1 42/64/1 7/82/1 8/83/1
f 42/59/3 21/58/3 29/84/3 7/85/3
f 41/86/14 22/87/14 32/61/14 33/60/14
f 44/52/3 27/51/3 31/57/3 34/56/3
f 43/4/1 44/3/1 34/63/1 33/62/1
f 13/12/3 5/11/3 45/88/3 11/89/3
f 19/55/3 15/90/3 47/15/3 1/14/3
f 11/89/3 45/88/3 7/85/3 29/84/3
f 46/16/4 47/15/4 3/2/4 4/1/4
f 46/16/14 16/91/14 20/92/14 2/13/14
f 47/15/3 15/90/3 17/50/3 3/2/3
f 4/1/14 18/49/14 16/91/14 46/16/14
f 2/13/14 20/92/14 24/75/14 38/74/14
f 8/78/14 30/77/14 22/87/14 41/86/14
f 14/93/14 6/94/14 40/81/14 26/80/14
f 48/8/2 45/7/2 5/18/2 6/17/2
f 48/79/14 6/94/14 14/93/14 12/76/14
